<svg version="1.1" id="fi_462261" xmlns="http://www.w3.org/2000/svg" xmlns:xlink="http://www.w3.org/1999/xlink" x="0px" y="0px" viewBox="0 0 512 512" style="enable-background:new 0 0 512 512;" xml:space="preserve">
<g>
	<g>
		<g>
			<path d="M384.897,80.619c1.502,2.987,4.514,4.719,7.646,4.719c1.28,0,2.586-0.299,3.806-0.905
				c4.215-2.108,5.922-7.236,3.814-11.452l-1.399-2.79c21.069,5.393,37.649,21.973,43.042,43.042l-2.79-1.399
				c-4.207-2.091-9.335-0.401-11.452,3.814c-2.108,4.215-0.401,9.344,3.823,11.452c0,0,17.067,8.533,17.297,8.593
				c1.101,0.503,2.287,0.845,3.584,0.845c1.118,0,2.227-0.23,3.268-0.666c1.05-0.427,1.988-1.058,2.773-1.843l17.058-17.058
				c3.328-3.337,3.328-8.738,0-12.075c-3.336-3.328-8.738-3.328-12.066,0l-4.804,4.804c-6.793-27.648-28.544-49.408-56.201-56.201
				l4.804-4.796c3.328-3.336,3.328-8.738,0-12.075c-3.336-3.328-8.738-3.328-12.066,0l-10.402,10.402
				c-2.91,2.91-6.571,5.598-8.286,9.463c-0.077,0.188-0.162,0.393-0.23,0.58c-1.161,3.191-0.017,5.939,1.451,8.883
				C380.016,70.839,382.456,75.738,384.897,80.619z"></path>
            <path d="M332.8,494.933h-17.067c-4.719,0-8.533,3.814-8.533,8.533c0,4.719,3.814,8.533,8.533,8.533H332.8
				c4.719,0,8.533-3.814,8.533-8.533C341.333,498.748,337.519,494.933,332.8,494.933z"></path>
            <path d="M281.6,494.933h-17.067c-4.719,0-8.533,3.814-8.533,8.533c0,4.719,3.814,8.533,8.533,8.533H281.6
				c4.719,0,8.533-3.814,8.533-8.533C290.133,498.748,286.319,494.933,281.6,494.933z"></path>
            <path d="M230.4,494.933h-17.067c-4.719,0-8.533,3.814-8.533,8.533c0,4.719,3.814,8.533,8.533,8.533H230.4
				c4.719,0,8.533-3.814,8.533-8.533C238.933,498.748,235.119,494.933,230.4,494.933z"></path>
            <path d="M503.467,204.8c-4.719,0-8.533,3.814-8.533,8.533V230.4c0,4.719,3.814,8.533,8.533,8.533S512,235.119,512,230.4v-17.067
				C512,208.614,508.186,204.8,503.467,204.8z"></path>
            <path d="M349.867,170.667h-8.533V8.533c0-4.719-3.814-8.533-8.533-8.533H8.533C3.814,0,0,3.814,0,8.533V332.8
				c0,4.719,3.814,8.533,8.533,8.533h162.133v8.533c0,4.719,3.814,8.533,8.533,8.533s8.533-3.814,8.533-8.533v-8.533h25.6H230.4
				h34.133H281.6h34.133H332.8c4.719,0,8.533-3.814,8.533-8.533v-34.133V281.6v-34.133V230.4v-34.133v-8.533h8.533
				c4.719,0,8.533-3.814,8.533-8.533S354.586,170.667,349.867,170.667z"></path>
            <path d="M486.4,187.733h17.067c4.719,0,8.533-3.814,8.533-8.533s-3.814-8.533-8.533-8.533H486.4
				c-4.719,0-8.533,3.814-8.533,8.533S481.681,187.733,486.4,187.733z"></path>
            <path d="M179.2,477.867c-4.719,0-8.533,3.814-8.533,8.533v17.067c0,4.719,3.814,8.533,8.533,8.533s8.533-3.814,8.533-8.533V486.4
				C187.733,481.681,183.919,477.867,179.2,477.867z"></path>
            <path d="M179.2,426.667c-4.719,0-8.533,3.814-8.533,8.533v17.067c0,4.719,3.814,8.533,8.533,8.533s8.533-3.814,8.533-8.533V435.2
				C187.733,430.481,183.919,426.667,179.2,426.667z"></path>
            <path d="M179.2,375.467c-4.719,0-8.533,3.814-8.533,8.533v17.067c0,4.719,3.814,8.533,8.533,8.533s8.533-3.814,8.533-8.533V384
				C187.733,379.281,183.919,375.467,179.2,375.467z"></path>
            <path d="M503.467,256c-4.719,0-8.533,3.814-8.533,8.533V281.6c0,4.719,3.814,8.533,8.533,8.533S512,286.319,512,281.6v-17.067
				C512,259.814,508.186,256,503.467,256z"></path>
            <path d="M503.467,409.6c-4.719,0-8.533,3.814-8.533,8.533V435.2c0,4.719,3.814,8.533,8.533,8.533S512,439.919,512,435.2v-17.067
				C512,413.414,508.186,409.6,503.467,409.6z"></path>
            <path d="M503.467,460.8c-4.719,0-8.533,3.814-8.533,8.533V486.4c0,4.719,3.814,8.533,8.533,8.533S512,491.119,512,486.4v-17.067
				C512,464.614,508.186,460.8,503.467,460.8z"></path>
            <path d="M503.467,358.4c-4.719,0-8.533,3.814-8.533,8.533V384c0,4.719,3.814,8.533,8.533,8.533S512,388.719,512,384v-17.067
				C512,362.214,508.186,358.4,503.467,358.4z"></path>
            <path d="M503.467,307.2c-4.719,0-8.533,3.814-8.533,8.533V332.8c0,4.719,3.814,8.533,8.533,8.533S512,337.519,512,332.8v-17.067
				C512,311.014,508.186,307.2,503.467,307.2z"></path>
            <path d="M384,494.933h-17.067c-4.719,0-8.533,3.814-8.533,8.533c0,4.719,3.814,8.533,8.533,8.533H384
				c4.719,0,8.533-3.814,8.533-8.533C392.533,498.748,388.719,494.933,384,494.933z"></path>
            <path d="M401.067,170.667H384c-4.719,0-8.533,3.814-8.533,8.533s3.814,8.533,8.533,8.533h17.067c4.719,0,8.533-3.814,8.533-8.533
				S405.786,170.667,401.067,170.667z"></path>
            <path d="M435.2,494.933h-17.067c-4.719,0-8.533,3.814-8.533,8.533c0,4.719,3.814,8.533,8.533,8.533H435.2
				c4.719,0,8.533-3.814,8.533-8.533C443.733,498.748,439.919,494.933,435.2,494.933z"></path>
            <path d="M486.4,494.933h-17.067c-4.719,0-8.533,3.814-8.533,8.533c0,4.719,3.814,8.533,8.533,8.533H486.4
				c4.719,0,8.533-3.814,8.533-8.533C494.933,498.748,491.119,494.933,486.4,494.933z"></path>
            <path d="M452.267,170.667H435.2c-4.719,0-8.533,3.814-8.533,8.533s3.814,8.533,8.533,8.533h17.067
				c4.719,0,8.533-3.814,8.533-8.533S456.986,170.667,452.267,170.667z"></path>
		</g>
	</g>
</g>
    <g>
</g>
    <g>
</g>
    <g>
</g>
    <g>
</g>
    <g>
</g>
    <g>
</g>
    <g>
</g>
    <g>
</g>
    <g>
</g>
    <g>
</g>
    <g>
</g>
    <g>
</g>
    <g>
</g>
    <g>
</g>
    <g>
</g>
</svg>
