<svg xmlns="http://www.w3.org/2000/svg" version="1.1" xmlns:xlink="http://www.w3.org/1999/xlink" width="512" height="512" x="0" y="0" viewBox="0 0 100 100" style="enable-background:new 0 0 512 512" xml:space="preserve" class=""><g><path d="M80.315.639C71.966-.858 65.526.281 60.625 4.117c-6.535 5.117-10.44 15.007-12.504 32.209H35.064a2.5 2.5 0 1 0 0 5h12.525a247.854 247.854 0 0 0-.536 6.843c-1.311 20.183-3.162 38.781-11.309 44.615-3.511 2.514-8.406 2.878-14.968 1.111a2.5 2.5 0 1 0-1.3 4.828c3.153.849 6.03 1.274 8.651 1.274 4.111 0 7.593-1.047 10.528-3.148 9.084-6.506 11.636-21.389 13.387-48.356.163-2.516.354-4.899.57-7.167h17.304a2.5 2.5 0 1 0 0-5h-16.76c1.883-15.219 5.248-24.12 10.551-28.272 3.768-2.95 8.766-3.743 15.725-2.493a2.5 2.5 0 0 0 .883-4.922z" fill="#ffffff" opacity="1" data-original="#000000" class=""></path></g></svg>